<mxfile host="app.diagrams.net" modified="2023-09-12T01:59:23.209Z" agent="Mozilla/5.0 (X11; Ubuntu; Linux x86_64; rv:109.0) Gecko/20100101 Firefox/115.0" etag="QDm6atrc1guVpZnTr70p" version="21.7.4" type="github">
  <diagram name="Page-1" id="e_W1tAh5664JoQLK4Ym2">
    <mxGraphModel dx="1052" dy="615" grid="1" gridSize="10" guides="1" tooltips="1" connect="1" arrows="1" fold="1" page="1" pageScale="1" pageWidth="850" pageHeight="1100" math="0" shadow="0">
      <root>
        <mxCell id="0" />
        <mxCell id="1" parent="0" />
        <mxCell id="bNse2LRTmeJiohHT22f_-1" value="Pemain" style="shape=umlActor;verticalLabelPosition=bottom;verticalAlign=top;html=1;outlineConnect=0;" vertex="1" parent="1">
          <mxGeometry x="40" y="190" width="120" height="210" as="geometry" />
        </mxCell>
        <mxCell id="bNse2LRTmeJiohHT22f_-2" value="Panitia" style="shape=umlActor;verticalLabelPosition=bottom;verticalAlign=top;html=1;outlineConnect=0;" vertex="1" parent="1">
          <mxGeometry x="710" y="190" width="110" height="205" as="geometry" />
        </mxCell>
        <mxCell id="bNse2LRTmeJiohHT22f_-9" value="" style="rounded=0;whiteSpace=wrap;html=1;" vertex="1" parent="1">
          <mxGeometry x="217.5" y="70" width="430" height="440" as="geometry" />
        </mxCell>
        <mxCell id="bNse2LRTmeJiohHT22f_-13" value="Balap Karung" style="text;html=1;strokeColor=none;fillColor=none;align=center;verticalAlign=middle;whiteSpace=wrap;rounded=0;fontSize=17;" vertex="1" parent="1">
          <mxGeometry x="370" y="80" width="130" height="30" as="geometry" />
        </mxCell>
        <mxCell id="bNse2LRTmeJiohHT22f_-17" value="" style="ellipse;whiteSpace=wrap;html=1;" vertex="1" parent="1">
          <mxGeometry x="372.5" y="260" width="125" height="50" as="geometry" />
        </mxCell>
        <mxCell id="bNse2LRTmeJiohHT22f_-18" value="Maju" style="text;html=1;strokeColor=none;fillColor=none;align=center;verticalAlign=middle;whiteSpace=wrap;rounded=0;fontSize=17;" vertex="1" parent="1">
          <mxGeometry x="405" y="270" width="60" height="30" as="geometry" />
        </mxCell>
        <mxCell id="bNse2LRTmeJiohHT22f_-20" value="" style="ellipse;whiteSpace=wrap;html=1;" vertex="1" parent="1">
          <mxGeometry x="372.5" y="380" width="125" height="50" as="geometry" />
        </mxCell>
        <mxCell id="bNse2LRTmeJiohHT22f_-21" value="" style="ellipse;whiteSpace=wrap;html=1;" vertex="1" parent="1">
          <mxGeometry x="372.5" y="150" width="125" height="50" as="geometry" />
        </mxCell>
        <mxCell id="bNse2LRTmeJiohHT22f_-22" value="Loncat" style="text;html=1;strokeColor=none;fillColor=none;align=center;verticalAlign=middle;whiteSpace=wrap;rounded=0;fontSize=17;" vertex="1" parent="1">
          <mxGeometry x="405" y="160" width="60" height="30" as="geometry" />
        </mxCell>
        <mxCell id="bNse2LRTmeJiohHT22f_-23" value="Cek Finish" style="text;html=1;strokeColor=none;fillColor=none;align=center;verticalAlign=middle;whiteSpace=wrap;rounded=0;fontSize=17;" vertex="1" parent="1">
          <mxGeometry x="381.25" y="390" width="107.5" height="30" as="geometry" />
        </mxCell>
        <mxCell id="bNse2LRTmeJiohHT22f_-24" value="" style="endArrow=none;html=1;rounded=0;exitX=1;exitY=0.3333333333333333;exitDx=0;exitDy=0;exitPerimeter=0;entryX=0.028;entryY=0.64;entryDx=0;entryDy=0;entryPerimeter=0;" edge="1" parent="1" source="bNse2LRTmeJiohHT22f_-1" target="bNse2LRTmeJiohHT22f_-21">
          <mxGeometry width="50" height="50" relative="1" as="geometry">
            <mxPoint x="380" y="350" as="sourcePoint" />
            <mxPoint x="430" y="300" as="targetPoint" />
          </mxGeometry>
        </mxCell>
        <mxCell id="bNse2LRTmeJiohHT22f_-26" value="" style="endArrow=none;html=1;rounded=0;entryX=0;entryY=0.5;entryDx=0;entryDy=0;exitX=1;exitY=0.3333333333333333;exitDx=0;exitDy=0;exitPerimeter=0;" edge="1" parent="1" source="bNse2LRTmeJiohHT22f_-1" target="bNse2LRTmeJiohHT22f_-17">
          <mxGeometry width="50" height="50" relative="1" as="geometry">
            <mxPoint x="170" y="288" as="sourcePoint" />
            <mxPoint x="356" y="210" as="targetPoint" />
          </mxGeometry>
        </mxCell>
        <mxCell id="bNse2LRTmeJiohHT22f_-27" value="" style="endArrow=none;html=1;rounded=0;exitX=1;exitY=0.3333333333333333;exitDx=0;exitDy=0;exitPerimeter=0;entryX=0;entryY=0.5;entryDx=0;entryDy=0;" edge="1" parent="1" source="bNse2LRTmeJiohHT22f_-1" target="bNse2LRTmeJiohHT22f_-20">
          <mxGeometry width="50" height="50" relative="1" as="geometry">
            <mxPoint x="120" y="378" as="sourcePoint" />
            <mxPoint x="336" y="300" as="targetPoint" />
          </mxGeometry>
        </mxCell>
        <mxCell id="bNse2LRTmeJiohHT22f_-28" value="" style="endArrow=none;html=1;rounded=0;exitX=1;exitY=0.5;exitDx=0;exitDy=0;entryX=0;entryY=0.3333333333333333;entryDx=0;entryDy=0;entryPerimeter=0;" edge="1" parent="1" source="bNse2LRTmeJiohHT22f_-20" target="bNse2LRTmeJiohHT22f_-2">
          <mxGeometry width="50" height="50" relative="1" as="geometry">
            <mxPoint x="494" y="390" as="sourcePoint" />
            <mxPoint x="710" y="312" as="targetPoint" />
          </mxGeometry>
        </mxCell>
      </root>
    </mxGraphModel>
  </diagram>
</mxfile>
